<?xml version="1.0" encoding="utf-8"?>
<!-- Generator: Adobe Illustrator 24.0.2, SVG Export Plug-In . SVG Version: 6.00 Build 0)  -->
<svg version="1.1" id="Ebene_1" xmlns="http://www.w3.org/2000/svg" xmlns:xlink="http://www.w3.org/1999/xlink" x="0px" y="0px"
	 viewBox="0 0 1000 1000" style="enable-background:new 0 0 1000 1000;" xml:space="preserve">
<style type="text/css">
	.st0{fill:#FFFFFF;}
</style>
<g>
	<g>
		<path class="st0" d="M201,802.3c0-201.4,0-402.9,0-604.5c199.3,0,398.6,0,598.1,0c0,201.4,0,402.9,0,604.5
			C599.8,802.3,400.4,802.3,201,802.3z M293.8,727.6c0-2.1,0-3.5,0-4.8c0.1-61.6,0.1-123.1,0.2-184.7c0.1-64-0.1-128,0.4-192
			c0.1-9.5,2-19.3,4.9-28.3c9.2-28.2,28.2-48.9,52.7-64.7c26.8-17.3,56.4-26.5,88.1-28.7c6.3-0.4,6.3-0.4,6.3,5.9
			c-0.1,34.6-0.3,69.2-0.2,103.9c0,4-1.4,6-4.5,8c-38.2,24.8-55.8,70.4-44,114.3c13.9,51.4,62.9,83.2,114.6,76.2
			c27.4-3.7,50.3-16.5,67.4-38.5c20-25.6,27-54.5,20.3-86.5c-6.1-28.6-21.8-50.6-46.2-66.5c-1.2-0.8-2.3-2.9-2.3-4.3
			c0-36,0.1-72,0.2-108c0-1.6,0-3.3,0-5.5c52.1,0,103.7,0,155.5,0c-0.1-2-0.2-3.5-0.3-5.5c-51.9,0-103.5,0-155.4,0
			c0-4.5,0-8.5,0-12.5c-1.9,0-3.5,0-5.7,0c0,4.2,0,8.2,0,12.3c-31.5,0-62.5,0-94,0c0-4.3,0-8.4,0-12.4c-2,0-3.5,0-5.5,0
			c0,4.3,0,8.3,0,12.7c-2.4,0-4.2,0-6,0c-48.8,0-97.5,0-146.3-0.1c-4.1,0-5.5,0.9-5.5,5.3c0.1,44.6,0.1,89.2,0,133.8
			c-0.1,60.5-0.4,120.9-0.5,181.4c-0.1,61.2-0.1,122.5-0.1,183.7c0,1.6,0,3.3,0,5.5c-27,0-53.5,0-80.1,0c0,2.1,0,3.7,0,5.3
			c195.7,0,391,0,586.5,0c0-1.8,0-3.4,0-5.4C627.5,727.6,461,727.6,293.8,727.6z M410,642.8c0-14.3,0-27.8,0-41.9
			c21,0,41.6,0,62.2,0c0-2.4,0-4.4,0-6.4c-23.2,0-46.2,0-69.2,0c0,35.8,0,71.3,0,106.8c23.2,0,46.2,0,69.2,0c0-2.3,0-4.3,0-6.8
			c-20.9,0-41.6,0-62.3,0c0-15.4,0-30.2,0-45.5c19.1,0,38,0,56.8,0c0-2.3,0-4.1,0-6.2C447.8,642.8,429.1,642.8,410,642.8z
			 M486.6,594.5c0,36,0,71.4,0,107.1c2.4-0.1,4.5-0.2,7-0.3c0-2.1,0-3.7,0-5.4c0-10.2,0-20.3,0-30.5c0-1.3,0-3.1,0.8-3.9
			c6.3-6,12.8-11.8,19.7-18.1c0.7,1,1.1,1.7,1.5,2.3c13.2,17.1,26.6,34.2,39.6,51.5c3.2,4.2,6.6,5.1,11.7,3.7
			c-16-20.9-31.8-41.4-47.7-62.1c15.2-14.8,30.3-29.4,45.8-44.5c-5.3-0.8-9.1-0.2-12.7,3.4C537.6,612,522.6,626,507.8,640
			c-4.5,4.2-9,8.4-14.4,13.4c0-20.5,0-39.6,0-59C490.8,594.5,488.8,594.5,486.6,594.5z M580.7,594.4c0,36,0,71.5,0,106.9
			c2.2,0,4,0,6.1,0c0-35.7,0-71.2,0-106.9C584.7,594.4,582.8,594.4,580.7,594.4z M608.7,609.1c0.1-1.3,0.2-2.6,0.3-3.9
			c2.3-0.2,4.3-0.4,6.3-0.6c0-0.5,0.1-0.9,0.1-1.4c-2.1-0.5-4.2-0.9-6.6-1.5c0.1-1.3,0.2-2.5,0.2-3.9c2.6-0.2,4.9-0.4,7.7-0.5
			c-2.2-2.7-13.1-3.3-19-1.7c0,8.7,0,17.2,0,25.1c5.7,0,10.7,0,15.6,0c0,2.2,0,4,0,6.5c-1.5-2-2.6-3.3-3.6-4.6
			c-0.3,0.3-0.7,0.5-1,0.8c1.4,2.6,3.4,5,4,7.8c1.1,5.1-3.5,4.3-6.5,5.8c2,0.9,4.1,1.7,5.8,1.1c1.4-0.4,3-2.3,3.2-3.8
			c0.9-5.2,1.2-10.6,1.8-16.4c-2.9-0.2-5.4-0.4-8.1-0.6c0-1.7,0-3.1,0-4.6c2.3-0.2,4.3-0.4,6.3-0.6c0-0.5,0.1-1,0.1-1.4
			C613.5,610,611.5,609.6,608.7,609.1z M624.3,615.4c3.7-1.1,5.4-0.5,6.2,3.9c1.3,7.2,4,14.1,10.5,18.7c3.1-1.6,1.5-2.9,0-4.4
			c-5.3-4.9-6.8-11.5-8.2-18.8c3.2,0,5.7,0,8.2,0c0-6.9,0-13.2,0-19.7c-6.7,0-13.1,0-20,0c0,7.1,0.4,14-0.1,20.9
			c-0.4,5.6-1.9,11.1-2.9,16.6c-0.3,1.6-0.6,3.2-1,4.7c1.3-1.2,3-2.1,3.7-3.6c1.1-2.1,1.7-4.6,2.1-7
			C623.5,623,623.8,619.2,624.3,615.4z M526.2,758.2c-0.4,0.1-0.9,0.2-1.3,0.3c0,10.8,0,21.7,0,32.5c0.4,0,0.8,0,1.1,0
			c0-9.2,0-18.5,0-29.1c7.2,10.2,11.4,20.7,18.7,30.2c0-12,0-22.8,0-33.7c-0.4,0-0.8,0-1.1,0c0,9.2,0,18.4,0,27.6
			c-0.3,0.1-0.7,0.1-1,0.2C537.2,776.9,531.7,767.6,526.2,758.2z M501.4,758.1c-9.4,0-17,7.5-17,16.7c0,9.3,8.1,17.4,17.3,17.2
			c9.4-0.2,16.8-7.7,16.8-17C518.5,765.2,511.3,758.1,501.4,758.1z M717.6,758.7c-0.4,0-0.8,0-1.2-0.1c0,9.2,0,18.4,0,27.6
			c-0.4,0-0.7,0-1.1,0c-5.5-9.4-11-18.8-16.5-28.2c-0.4,0.1-0.7,0.2-1.1,0.4c0,10.9,0,21.9,0,32.8c0.4,0,0.8,0,1.2,0
			c0-9.3,0-18.7,0-28c0.3,0,0.6-0.1,1-0.1c5.6,9.5,11.1,19,16.7,28.5c0.3-0.1,0.7-0.3,1-0.4C717.6,780.3,717.6,769.5,717.6,758.7z
			 M365.7,758.1c-0.4,0.2-0.8,0.4-1.2,0.7c0,10.7,0,21.4,0,32.1c0.4,0,0.8,0,1.2,0c0-9.3,0-18.6,0-27.8c0.3,0,0.6,0,0.9,0
			c5.6,9.5,11.2,19,16.7,28.6c0.4-0.1,0.7-0.3,1.1-0.4c0-10.8,0-21.5,0-32.3c-0.4,0-0.8,0-1.2,0c0,9.1,0,18.2,0,27.4
			c-0.3,0-0.7,0.1-1,0.1C376.7,776.9,371.2,767.5,365.7,758.1z M652.4,758.6c-0.4,0-0.8,0.1-1.1,0.1c0,10.8,0,21.6,0,32.4
			c0.4,0,0.9,0,1.3,0c0-4.8,0-9.6,0-14.2c5.1,0,9.4,0,14.4,0c0,4.9,0,9.5,0,14.1c0.3,0,0.5,0,0.8,0c0-10.7,0-21.4,0-32.1
			c-0.4,0-0.8,0-1.2,0c0,5.2,0,10.4,0,15.6c-5.1,0-9.4,0-14.2,0C652.4,769,652.4,763.8,652.4,758.6z M674.8,791c5.7,0,10.9,0,16,0
			c0-0.4,0-0.8,0-1.2c-4.7,0-9.4,0-14.1,0c0-5.1,0-9.5,0-14.4c5,0,9.5,0,14.1,0c0-0.5,0-0.9,0-1.4c-4.7,0-9.4,0-14.1,0
			c0-5.1,0-9.5,0-14.4c5,0,9.6,0,14.1,0c0-0.3,0-0.7,0-1c-5.3,0-10.6,0-16.1,0C674.8,769.5,674.8,780.1,674.8,791z M568.3,758.5
			c-0.4,0-0.8,0-1.2,0c0,10.9,0,21.7,0,32.6c2.6-5.5-0.5-11.9,3-17.9c4.9,6.4,7.7,13.2,13.2,18c-3-5.7-6.4-11.2-10.1-16.5
			c-1.5-2.3-1.5-3.9,0.3-6c2.6-3.1,4.8-6.6,7.2-9.9c-0.4-0.3-0.8-0.6-1.1-0.9c-3.5,4.4-7,8.9-11.3,14.4
			C568.3,766.9,568.3,762.7,568.3,758.5z M645.3,763.2c-6.4-7.2-16.9-6.7-23.7,0.3c-6.8,7.1-5.9,18.3,2,24.8
			c6.5,5.4,16.8,4.9,21.9-2.1c-9.6,5.7-17.8,5.9-24.1-3c-3.9-5.5-3.2-12.9,1-17.9C627.9,758.9,633.3,758.3,645.3,763.2z
			 M428.1,758.5c-0.5,0-1,0-1.5,0c0,8.2-0.5,16.5,0.2,24.6c0.5,5.8,5.4,8.9,11.2,8.5c5.5-0.3,9.7-4.2,10-10.1
			c0.3-7.1,0.1-14.1,0.1-21.2c0-0.6-0.6-1.2-1-2c-0.3,0.5-0.4,0.7-0.4,0.8c-0.1,6.9-0.1,13.8-0.2,20.7c-0.2,7.4-5.9,11.9-12.2,9.7
			c-4.2-1.5-6.2-4.7-6.2-9.2C428.1,773,428.1,765.8,428.1,758.5z M358,791.4c0.4-0.2,0.9-0.4,1.3-0.5c-3.9-10.7-7.8-21.4-12-33.2
			c-4.2,11.8-8,22.4-11.8,33.1c0.5,0.2,0.9,0.3,1.4,0.5c0.7-1.8,1.4-3.6,2.1-5.4c2.7-7.4,2.7-7.3,10.5-7.4c2.8,0,4.1,0.8,4.9,3.5
			C355.3,785.2,356.8,788.3,358,791.4z M299.3,791.4c0.5-0.2,0.9-0.4,1.4-0.5c-3.9-10.7-7.8-21.3-12.1-33.2
			c-4.3,12-8.2,22.6-12,33.2c0.4,0.2,0.9,0.3,1.3,0.5c0.7-1.7,1.5-3.4,2.1-5.2c2.9-7.9,2.9-7.8,11-7.8c2.4,0,3.6,0.6,4.3,3
			C296.5,784.9,298,788.1,299.3,791.4z M305.2,783.2c-0.1,5.5,4.6,9.4,10,8.7c4.5-0.6,7.3-3.2,8.4-7.4c1.2-4.3-0.9-8.7-5.2-11.3
			c-2.5-1.5-5.2-2.6-7.5-4.3c-2.7-2-3-5.3-0.6-7.1c1.7-1.3,4.8-0.7,7.3-0.7c0.7,0,1.4,1,2,1.5c0.3-0.4,0.6-0.9,0.9-1.3
			c-1.8-1-3.5-2.6-5.5-3c-3.5-0.8-6.1,1.1-7.3,4.2c-1.4,3.4-0.3,6.4,2.8,8.4c3,2,6.6,3.4,9.3,5.8c3.7,3.2,3.2,8.5-0.6,11.7
			c-3.7,3.1-8.2,2.7-11.3-1.2C306.9,786,306.2,784.7,305.2,783.2z M453.1,783.9c-0.1,3.6,1.8,6,5,7.2c3.5,1.3,6.9,1.2,10-1.3
			c5.9-4.9,4.7-12.9-2.6-17.1c-2.2-1.3-4.7-2.2-6.7-3.8c-2.5-2-2.9-4.7-0.6-7.2c2.2-2.5,4.8-2.4,7.4-0.7c0.7,0.5,1.4,1.1,3,2.3
			c-1.6-4.3-4.3-5.9-7.2-4.9c-2.3,0.7-5.2,2.8-5.8,4.9c-0.6,2,0.7,5.5,2.4,7.1c2.3,2.3,5.9,3.2,8.6,5.1c2.9,2.1,4.9,5.3,3,8.7
			c-1.4,2.5-4,5.3-6.6,6C458.3,791.2,455.4,787.7,453.1,783.9z M420.4,759.7c0-0.3,0-0.7,0-1c-4.7,0-9.4,0-13.8,0
			c0,11,0,21.7,0,32.5c0.4,0,0.9,0,1.3,0c0-5.1,0-10.1,0-15.8c4.6,0,8.6,0,12.5,0c0-0.4,0-0.9,0-1.3c-4.1,0-8.2,0-12.2,0
			c0-5.1,0-9.5,0-14.4C412.4,759.7,416.4,759.7,420.4,759.7z M596.4,758.7c0,0.4,0,0.7-0.1,1.1c2.6,0.1,5.2,0.3,8.4,0.5
			c0,10.5,0,20.7,0,30.9c0.5,0,0.9,0,1.4,0c0-10.2,0-20.5,0-30.9c3.2-0.2,5.7-0.4,8.2-0.5c0-0.3-0.1-0.7-0.1-1
			C608.3,758.7,602.4,758.7,596.4,758.7z M591.1,758.5c-0.3,0-0.6,0-0.9,0c0,10.9,0,21.7,0,32.6c0.3,0,0.6,0,0.9,0
			C591.1,780.3,591.1,769.4,591.1,758.5z M329.9,758.6c-0.3,0-0.6,0-0.9,0c0,10.8,0,21.7,0,32.5c0.3,0,0.6,0,0.9,0
			C329.9,780.3,329.9,769.4,329.9,758.6z M476.8,791c0.3,0.1,0.6,0.1,0.9,0.2c0-10.8,0-21.5,0-32.3c-0.3,0-0.6,0-0.9,0
			C476.8,769.6,476.8,780.3,476.8,791z M594.5,635.5c4-3.2,5.1-8.4,2.9-12.4C596.4,627.3,595.5,631,594.5,635.5z"/>
		<path d="M293.8,727.6c167.1,0,333.7,0,500.5,0c0,2,0,3.6,0,5.4c-195.5,0-390.9,0-586.5,0c0-1.7,0-3.2,0-5.3c26.6,0,53.1,0,80.1,0
			c0-2.2,0-3.8,0-5.5c0-61.2,0-122.5,0.1-183.7c0.1-60.5,0.3-120.9,0.5-181.4c0.1-44.6,0.2-89.2,0-133.8c0-4.4,1.4-5.3,5.5-5.3
			c48.8,0.1,97.5,0.1,146.3,0.1c1.8,0,3.6,0,6,0c0-4.4,0-8.4,0-12.7c2,0,3.5,0,5.5,0c0,4,0,8.1,0,12.4c31.5,0,62.5,0,94,0
			c0-4.2,0-8.1,0-12.3c2.1,0,3.7,0,5.7,0c0,4,0,8,0,12.5c51.9,0,103.5,0,155.4,0c0.1,2,0.2,3.5,0.3,5.5c-51.8,0-103.4,0-155.5,0
			c0,2.2,0,3.8,0,5.5c-0.1,36-0.2,72-0.2,108c0,1.5,1.1,3.5,2.3,4.3c24.4,16,40.1,37.9,46.2,66.5c6.8,31.9-0.3,60.9-20.3,86.5
			c-17.1,21.9-40,34.7-67.4,38.5c-51.7,7-100.7-24.8-114.6-76.2c-11.9-43.9,5.8-89.5,44-114.3c3.1-2,4.5-4.1,4.5-8
			c-0.1-34.6,0.1-69.2,0.2-103.9c0-6.3,0-6.3-6.3-5.9c-31.8,2.2-61.3,11.4-88.1,28.7c-24.5,15.8-43.6,36.5-52.7,64.7
			c-2.9,9-4.9,18.8-4.9,28.3c-0.5,64-0.3,128-0.4,192c-0.1,61.6-0.1,123.1-0.2,184.7C293.8,724.1,293.8,725.5,293.8,727.6z
			 M596.9,429.3c-1-55.7-44.7-98.6-99-98.3c-56,0.3-98.5,45-98,99.1c0.5,56.1,45.1,98.4,99.2,97.8
			C555,527.3,596.1,482.9,596.9,429.3z M452.2,335.8c31.2-14.3,62.1-14.1,93.2,0.6c0-38,0-75.3,0-112.6c-31.2,0-62.1,0-93.2,0
			C452.2,261,452.2,298,452.2,335.8z M294.4,312.9c21.3-49.5,61-74.7,109.4-89.2c-36.4,0-72.8,0-109.4,0
			C294.4,253.3,294.4,282.6,294.4,312.9z"/>
		<path d="M410,642.8c19.1,0,37.9,0,56.8,0c0,2.1,0,3.9,0,6.2c-18.9,0-37.7,0-56.8,0c0,15.3,0,30.1,0,45.5c20.7,0,41.4,0,62.3,0
			c0,2.5,0,4.4,0,6.8c-23,0-46,0-69.2,0c0-35.5,0-71,0-106.8c23,0,46,0,69.2,0c0,2.1,0,4,0,6.4c-20.6,0-41.2,0-62.2,0
			C410,615,410,628.5,410,642.8z"/>
		<path d="M486.6,594.5c2.2,0,4.3,0,6.8,0c0,19.4,0,38.6,0,59c5.4-5,10-9.2,14.4-13.4c14.9-14.1,29.8-28,44.5-42.3
			c3.6-3.5,7.4-4.1,12.7-3.4c-15.5,15-30.6,29.7-45.8,44.5c15.9,20.7,31.7,41.3,47.7,62.1c-5.1,1.4-8.5,0.5-11.7-3.7
			c-13-17.3-26.4-34.4-39.6-51.5c-0.5-0.6-0.9-1.3-1.5-2.3c-6.9,6.3-13.4,12.1-19.7,18.1c-0.8,0.7-0.8,2.6-0.8,3.9
			c-0.1,10.2,0,20.3,0,30.5c0,1.7,0,3.3,0,5.4c-2.5,0.1-4.6,0.2-7,0.3C486.6,665.8,486.6,630.5,486.6,594.5z"/>
		<path d="M580.7,594.4c2,0,4,0,6.1,0c0,35.8,0,71.2,0,106.9c-2.1,0-3.9,0-6.1,0C580.7,665.9,580.7,630.5,580.7,594.4z"/>
		<path d="M608.7,609.1c2.8,0.6,4.8,1,6.8,1.4c0,0.5-0.1,1-0.1,1.4c-2,0.2-4,0.4-6.3,0.6c0,1.5,0,2.9,0,4.6c2.7,0.2,5.2,0.4,8.1,0.6
			c-0.6,5.8-0.9,11.1-1.8,16.4c-0.2,1.4-1.8,3.3-3.2,3.8c-1.7,0.6-3.8-0.2-5.8-1.1c3-1.5,7.7-0.7,6.5-5.8c-0.6-2.8-2.6-5.2-4-7.8
			c0.3-0.3,0.7-0.5,1-0.8c1,1.3,2.1,2.7,3.6,4.6c0-2.5,0-4.2,0-6.5c-4.9,0-9.9,0-15.6,0c0-7.8,0-16.4,0-25.1c5.9-1.6,16.8-1,19,1.7
			c-2.7,0.2-5,0.4-7.7,0.5c-0.1,1.4-0.2,2.7-0.2,3.9c2.4,0.5,4.5,1,6.6,1.5c0,0.5-0.1,0.9-0.1,1.4c-2,0.2-4,0.4-6.3,0.6
			C608.9,606.4,608.8,607.7,608.7,609.1z M600.2,612.5c0,1.5,0,2.8,0,4.3c1.8,0,3.3,0,5.1,0c-0.1-1.6-0.2-2.9-0.3-4.3
			C603.4,612.5,601.9,612.5,600.2,612.5z M605.2,605.1c-5.5-0.3-5.5-0.3-4.6,4.2c1.6,0,3.1,0,4.8,0c0-0.9,0.1-1.5,0.1-2.1
			C605.4,606.6,605.3,606,605.2,605.1z M605.3,597.7c-5.7-0.3-5.7-0.3-4.5,4.4c1.4-0.1,2.9-0.2,4.5-0.3
			C605.3,600.4,605.3,599.2,605.3,597.7z"/>
		<path d="M624.3,615.4c-0.5,3.8-0.8,7.6-1.5,11.3c-0.4,2.4-1,4.8-2.1,7c-0.7,1.4-2.4,2.4-3.7,3.6c0.3-1.6,0.7-3.2,1-4.7
			c1-5.5,2.5-11,2.9-16.6c0.5-6.8,0.1-13.8,0.1-20.9c6.9,0,13.2,0,20,0c0,6.5,0,12.9,0,19.7c-2.5,0-5,0-8.2,0
			c1.3,7.4,2.8,13.9,8.2,18.8c1.6,1.5,3.1,2.8,0,4.4c-6.5-4.5-9.2-11.4-10.5-18.7C629.7,614.9,628,614.3,624.3,615.4z M624.4,598
			c0,4.9,0,9.1,0,13.3c4.8,0,9.2,0,13.5,0c0-4.6,0-8.9,0-13.3C633.3,598,628.9,598,624.4,598z"/>
		<path d="M526.2,758.2c5.5,9.4,11,18.8,16.5,28.1c0.3-0.1,0.7-0.1,1-0.2c0-9.2,0-18.4,0-27.6c0.4,0,0.8,0,1.1,0
			c0,10.8,0,21.6,0,33.7c-7.3-9.5-11.5-20-18.7-30.2c0,10.6,0,19.8,0,29.1c-0.4,0-0.8,0-1.1,0c0-10.8,0-21.7,0-32.5
			C525.3,758.4,525.8,758.3,526.2,758.2z"/>
		<path d="M501.4,758.1c9.9,0,17.2,7.1,17.1,16.9c0,9.4-7.4,16.8-16.8,17c-9.1,0.2-17.3-7.9-17.3-17.2
			C484.4,765.6,492,758.1,501.4,758.1z M516.7,775c0-8.6-6.4-15.2-15-15.2c-8.8,0-15.5,6.6-15.5,15.3c0,8,7.3,15.2,15.4,15.2
			C509.8,790.4,516.7,783.3,516.7,775z"/>
		<path d="M717.6,758.7c0,10.8,0,21.7,0,32.5c-0.3,0.1-0.7,0.3-1,0.4c-5.6-9.5-11.1-19-16.7-28.5c-0.3,0-0.6,0.1-1,0.1
			c0,9.3,0,18.7,0,28c-0.4,0-0.8,0-1.2,0c0-10.9,0-21.9,0-32.8c0.4-0.1,0.7-0.2,1.1-0.4c5.5,9.4,11,18.8,16.5,28.2
			c0.4,0,0.7,0,1.1,0c0-9.2,0-18.4,0-27.6C716.8,758.6,717.2,758.6,717.6,758.7z"/>
		<path d="M365.7,758.1c5.5,9.4,10.9,18.8,16.4,28.1c0.3,0,0.7-0.1,1-0.1c0-9.1,0-18.2,0-27.4c0.4,0,0.8,0,1.2,0
			c0,10.8,0,21.5,0,32.3c-0.4,0.1-0.7,0.3-1.1,0.4c-5.6-9.5-11.2-19-16.7-28.6c-0.3,0-0.6,0-0.9,0c0,9.3,0,18.6,0,27.8
			c-0.4,0-0.8,0-1.2,0c0-10.7,0-21.4,0-32.1C364.9,758.6,365.3,758.3,365.7,758.1z"/>
		<path d="M652.4,758.6c0,5.2,0,10.4,0,15.9c4.7,0,9.1,0,14.2,0c0-5.2,0-10.4,0-15.6c0.4,0,0.8,0,1.2,0c0,10.7,0,21.4,0,32.1
			c-0.3,0-0.5,0-0.8,0c0-4.6,0-9.1,0-14.1c-5,0-9.3,0-14.4,0c0,4.6,0,9.4,0,14.2c-0.4,0-0.9,0-1.3,0c0-10.8,0-21.6,0-32.4
			C651.6,758.7,652,758.6,652.4,758.6z"/>
		<path d="M674.8,791c0-10.9,0-21.5,0-32.3c5.5,0,10.8,0,16.1,0c0,0.3,0,0.7,0,1c-4.6,0-9.2,0-14.1,0c0,4.9,0,9.3,0,14.4
			c4.7,0,9.4,0,14.1,0c0,0.5,0,0.9,0,1.4c-4.6,0-9.2,0-14.1,0c0,4.9,0,9.3,0,14.4c4.7,0,9.4,0,14.1,0c0,0.4,0,0.8,0,1.2
			C685.7,791,680.5,791,674.8,791z"/>
		<path d="M568.3,758.5c0,4.2,0,8.3,0,13.8c4.3-5.5,7.8-9.9,11.3-14.4c0.4,0.3,0.8,0.6,1.1,0.9c-2.4,3.3-4.6,6.8-7.2,9.9
			c-1.8,2.2-1.8,3.8-0.3,6c3.6,5.3,7,10.7,10.1,16.5c-5.5-4.8-8.4-11.6-13.2-18c-3.5,6-0.4,12.4-3,17.9c0-10.9,0-21.7,0-32.6
			C567.5,758.5,567.9,758.5,568.3,758.5z"/>
		<path d="M645.3,763.2c-12-4.8-17.4-4.2-22.8,2.2c-4.3,5-5,12.3-1,17.9c6.3,8.9,14.5,8.7,24.1,3c-5,7-15.3,7.5-21.9,2.1
			c-7.9-6.5-8.8-17.7-2-24.8C628.4,756.4,638.9,756,645.3,763.2z"/>
		<path d="M428.1,758.5c0,7.3,0,14.6,0,21.8c0,4.5,2,7.7,6.2,9.2c6.3,2.3,12-2.3,12.2-9.7c0.2-6.9,0.2-13.8,0.2-20.7
			c0-0.1,0.1-0.3,0.4-0.8c0.4,0.8,1,1.4,1,2c0.1,7.1,0.3,14.2-0.1,21.2c-0.3,5.8-4.5,9.7-10,10.1c-5.8,0.3-10.7-2.7-11.2-8.5
			c-0.7-8.1-0.2-16.4-0.2-24.6C427.1,758.5,427.6,758.5,428.1,758.5z"/>
		<path d="M358,791.4c-1.3-3.1-2.7-6.2-3.7-9.5c-0.8-2.7-2.2-3.5-4.9-3.5c-7.8,0.1-7.8,0-10.5,7.4c-0.7,1.8-1.4,3.6-2.1,5.4
			c-0.5-0.2-0.9-0.3-1.4-0.5c3.8-10.6,7.6-21.3,11.8-33.1c4.3,11.8,8.2,22.5,12,33.2C358.9,791.1,358.5,791.3,358,791.4z M347.3,763
			c-1.8,5.1-3.3,9.3-4.9,13.7c3.7,0,6.8,0,10.1,0C350.8,772.1,349.2,768,347.3,763z"/>
		<path d="M299.3,791.4c-1.3-3.3-2.8-6.6-3.8-10c-0.7-2.4-2-3-4.3-3c-8.1,0-8.1-0.1-11,7.8c-0.6,1.7-1.4,3.4-2.1,5.2
			c-0.4-0.2-0.9-0.3-1.3-0.5c3.8-10.6,7.6-21.2,12-33.2c4.3,11.9,8.2,22.5,12.1,33.2C300.2,791.1,299.7,791.3,299.3,791.4z
			 M289.1,764.2c-0.3,0-0.7,0-1,0c-1.4,4.2-2.9,8.3-4.4,12.6c3.7,0,6.5,0,9.9,0C292,772.3,290.6,768.2,289.1,764.2z"/>
		<path d="M305.2,783.2c1,1.6,1.7,2.9,2.6,4c3.1,3.9,7.6,4.3,11.3,1.2c3.7-3.2,4.3-8.5,0.6-11.7c-2.7-2.4-6.2-3.8-9.3-5.8
			c-3-2-4.2-5-2.8-8.4c1.3-3.1,3.9-5,7.3-4.2c2,0.5,3.7,2,5.5,3c-0.3,0.4-0.6,0.9-0.9,1.3c-0.7-0.5-1.4-1.5-2-1.5
			c-2.5,0-5.7-0.6-7.3,0.7c-2.4,1.8-2.1,5.1,0.6,7.1c2.3,1.7,5,2.8,7.5,4.3c4.3,2.6,6.4,7,5.2,11.3c-1.2,4.2-3.9,6.9-8.4,7.4
			C309.8,792.6,305,788.7,305.2,783.2z"/>
		<path d="M453.1,783.9c2.3,3.8,5.2,7.3,9.8,6.2c2.6-0.6,5.2-3.4,6.6-6c1.9-3.4-0.1-6.6-3-8.7c-2.7-1.9-6.3-2.9-8.6-5.1
			c-1.7-1.6-3-5.1-2.4-7.1c0.6-2.1,3.5-4.1,5.8-4.9c2.9-0.9,5.6,0.6,7.2,4.9c-1.5-1.2-2.2-1.8-3-2.3c-2.6-1.8-5.2-1.8-7.4,0.7
			c-2.3,2.6-1.9,5.2,0.6,7.2c2,1.6,4.5,2.5,6.7,3.8c7.2,4.1,8.5,12.2,2.6,17.1c-3,2.5-6.5,2.7-10,1.3
			C454.9,789.9,453,787.5,453.1,783.9z"/>
		<path d="M420.4,759.7c-4,0-7.9,0-12.3,0c0,4.9,0,9.3,0,14.4c4,0,8.1,0,12.2,0c0,0.4,0,0.9,0,1.3c-4,0-7.9,0-12.5,0
			c0,5.6,0,10.7,0,15.8c-0.4,0-0.9,0-1.3,0c0-10.8,0-21.5,0-32.5c4.5,0,9.2,0,13.8,0C420.4,759,420.4,759.4,420.4,759.7z"/>
		<path d="M596.4,758.7c6,0,11.9,0,17.9,0c0,0.3,0.1,0.7,0.1,1c-2.5,0.2-5.1,0.3-8.2,0.5c0,10.4,0,20.6,0,30.9c-0.5,0-0.9,0-1.4,0
			c0-10.2,0-20.4,0-30.9c-3.3-0.2-5.9-0.3-8.4-0.5C596.4,759.4,596.4,759,596.4,758.7z"/>
		<path d="M591.1,758.5c0,10.9,0,21.7,0,32.6c-0.3,0-0.6,0-0.9,0c0-10.9,0-21.7,0-32.6C590.5,758.5,590.8,758.5,591.1,758.5z"/>
		<path d="M329.9,758.6c0,10.8,0,21.7,0,32.5c-0.3,0-0.6,0-0.9,0c0-10.8,0-21.7,0-32.5C329.3,758.6,329.6,758.6,329.9,758.6z"/>
		<path d="M476.8,791c0-10.7,0-21.4,0-32.1c0.3,0,0.6,0,0.9,0c0,10.8,0,21.5,0,32.3C477.4,791.1,477.1,791.1,476.8,791z"/>
		<path d="M594.5,635.5c1-4.4,1.9-8.2,2.9-12.4C599.7,627.1,598.6,632.3,594.5,635.5z"/>
		<path class="st0" d="M596.9,429.3c-0.7,53.6-41.9,98-97.8,98.6c-54.1,0.6-98.7-41.7-99.2-97.8c-0.5-54.1,42.1-98.7,98-99.1
			C552.2,330.6,595.9,373.6,596.9,429.3z M507.7,431.9c28.6,0,56.8,0,85.2,0c0-1.8,0-3.4,0-5.1c-28.5,0-56.7,0-85.2,0
			C507.7,428.6,507.7,430.1,507.7,431.9z M495.7,366.1c0,18.2,0,36.1,0,54.1c1.8,0,3.3,0,5,0c0-18.2,0-36.1,0-54.1
			C498.9,366.1,497.4,366.1,495.7,366.1z M403.4,432c6.1,0,11.7,0,17.6,0c0-1.8,0-3.3,0-5.1c-6,0-11.7,0-17.6,0
			C403.4,428.7,403.4,430.1,403.4,432z M500.6,522.2c0-5.9,0-11.7,0-17.6c-1.7,0-3.3,0-4.8,0c0,6,0,11.8,0,17.6
			C497.5,522.2,498.8,522.2,500.6,522.2z M500.7,352.8c0-5.8,0-11.4,0-17.2c-1.8,0-3.4,0-5,0c0,5.9,0,11.5,0,17.2
			C497.5,352.8,499,352.8,500.7,352.8z M498.4,425.2c-1.5,1.8-3,2.8-2.9,3.8c0,1.1,1.5,2.1,2.3,3.1c1.1-0.9,2.7-1.7,3.1-2.9
			C501.2,428.5,499.7,427.2,498.4,425.2z"/>
		<path class="st0" d="M452.2,335.8c0-37.8,0-74.8,0-112.1c31.1,0,62,0,93.2,0c0,37.4,0,74.7,0,112.6
			C514.3,321.7,483.4,321.5,452.2,335.8z"/>
		<path class="st0" d="M294.4,312.9c0-30.3,0-59.6,0-89.2c36.6,0,73,0,109.4,0C355.4,238.2,315.6,263.4,294.4,312.9z"/>
		<path class="st0" d="M600.2,612.5c1.7,0,3.1,0,4.9,0c0.1,1.4,0.2,2.7,0.3,4.3c-1.8,0-3.4,0-5.1,0
			C600.2,615.3,600.2,614,600.2,612.5z"/>
		<path class="st0" d="M605.2,605.1c0.1,0.9,0.2,1.5,0.3,2.1c0,0.6,0,1.2-0.1,2.1c-1.6,0-3.2,0-4.8,0
			C599.7,604.8,599.7,604.8,605.2,605.1z"/>
		<path class="st0" d="M605.3,597.7c0,1.5,0,2.7,0,4.1c-1.6,0.1-3.1,0.2-4.5,0.3C599.6,597.4,599.6,597.4,605.3,597.7z"/>
		<path class="st0" d="M624.4,598c4.5,0,8.9,0,13.5,0c0,4.4,0,8.7,0,13.3c-4.4,0-8.8,0-13.5,0C624.4,607.1,624.4,602.9,624.4,598z"
			/>
		<path class="st0" d="M516.7,775c0,8.4-6.9,15.4-15.1,15.4c-8.2,0-15.4-7.2-15.4-15.2c0-8.7,6.7-15.4,15.5-15.3
			C510.3,759.8,516.7,766.4,516.7,775z"/>
		<path class="st0" d="M347.3,763c1.9,5,3.4,9.1,5.1,13.7c-3.3,0-6.4,0-10.1,0C344,772.3,345.5,768.1,347.3,763z"/>
		<path class="st0" d="M289.1,764.2c1.5,4.1,2.9,8.1,4.5,12.6c-3.4,0-6.2,0-9.9,0c1.5-4.3,2.9-8.4,4.4-12.6
			C288.4,764.2,288.8,764.2,289.1,764.2z"/>
		<path d="M507.7,431.9c0-1.9,0-3.3,0-5.1c28.4,0,56.6,0,85.2,0c0,1.7,0,3.2,0,5.1C564.5,431.9,536.3,431.9,507.7,431.9z"/>
		<path d="M495.7,366.1c1.7,0,3.2,0,5,0c0,18,0,35.9,0,54.1c-1.6,0-3.2,0-5,0C495.7,402.2,495.7,384.2,495.7,366.1z"/>
		<path d="M403.4,432c0-1.9,0-3.3,0-5.1c5.9,0,11.6,0,17.6,0c0,1.7,0,3.3,0,5.1C415,432,409.4,432,403.4,432z"/>
		<path d="M500.6,522.2c-1.7,0-3.1,0-4.8,0c0-5.9,0-11.6,0-17.6c1.5,0,3.1,0,4.8,0C500.6,510.5,500.6,516.3,500.6,522.2z"/>
		<path d="M500.7,352.8c-1.7,0-3.2,0-5,0c0-5.6,0-11.2,0-17.2c1.6,0,3.2,0,5,0C500.7,341.4,500.7,347,500.7,352.8z"/>
		<path d="M498.4,425.2c1.2,1.9,2.7,3.3,2.5,4.1c-0.4,1.2-2,2-3.1,2.9c-0.8-1-2.3-2.1-2.3-3.1C495.5,428.1,497,427,498.4,425.2z"/>
	</g>
</g>
</svg>
